<?xml version="1.0" standalone="no"?>
<!DOCTYPE svg PUBLIC "-//W3C//DTD SVG 1.1//EN" "http://www.w3.org/Graphics/SVG/1.1/DTD/svg11.dtd" >
<svg xmlns="http://www.w3.org/2000/svg" xmlns:xlink="http://www.w3.org/1999/xlink" version="1.1">
<metadata></metadata>
<defs>
<font id="pixel_arial_11regular" horiz-adv-x="1536" >
<font-face units-per-em="2048" ascent="1638" descent="-410" />
<missing-glyph horiz-adv-x="768" />
<glyph horiz-adv-x="0" />
<glyph unicode="&#xd;" horiz-adv-x="768" />
<glyph unicode=" "  horiz-adv-x="768" />
<glyph unicode="&#x09;" horiz-adv-x="768" />
<glyph unicode="&#xa0;" horiz-adv-x="768" />
<glyph unicode="!" horiz-adv-x="512" d="M0 0v256h256v-256h-256zM0 512v1536h256v-1536h-256z" />
<glyph unicode="&#x22;" horiz-adv-x="1024" d="M0 1280v768h256v-768h-256zM512 1280v768h256v-768h-256z" />
<glyph unicode="#" d="M0 0v512h256v-512h-256zM0 512v256h1024v-256h-1024zM0 1280v256h1280v-256h-1280zM256 768v512h256v-512h-256zM512 0v512h256v-512h-256zM512 1536v512h256v-512h-256zM768 768v512h256v-512h-256zM1024 512v256h256v-256h-256zM1024 1536v512h256v-512h-256z" />
<glyph unicode="$" d="M0 256v256h256v-256h-256zM0 1280v512h276v-512h-276zM256 0v256h768v-256h-768zM256 1024v256h768v-256h-768zM256 1792v256h768v-256h-768zM512 0h256v-256h-256v256zM512 256v768h256v-768h-256zM512 1280v512h256v-512h-256zM1014 256v768h266v-768h-266zM1024 1536 v256h256v-256h-256z" />
<glyph unicode="%" horiz-adv-x="2560" d="M0 1280v512h266v-512h-266zM256 1024v256h512v-256h-512zM256 1792v256h512v-256h-512zM512 0v256h256v-256h-256zM758 1280v512h266v-512h-266zM768 256v512h256v-512h-256zM1024 768v512h256v-512h-256zM1280 256v512h266v-512h-266zM1280 1280v512h256v-512h-256z M1536 0v256h512v-256h-512zM1536 768v256h512v-256h-512zM1536 1792v256h256v-256h-256zM2038 256v512h266v-512h-266z" />
<glyph unicode="&#x26;" horiz-adv-x="1792" d="M0 256v512h256v256h256v256h-256v512h256v256h512v-256h256v-512h-256v-512h512v-256h-256v-256h256v-256h-256v256h-256v-256h-768v256h-256zM256 266h768v492h-256v256h-256v-256h-256v-492zM512 1290h512v492h-512v-492z" />
<glyph unicode="'" horiz-adv-x="512" d="M0 1280v768h256v-768h-256z" />
<glyph unicode="(" horiz-adv-x="1024" d="M0 0v1536h256v-1536h-256zM256 0h256v-256h-256v256zM256 1536v256h256v-256h-256zM512 -256h256v-256h-256v256zM512 1792v256h256v-256h-256z" />
<glyph unicode=")" horiz-adv-x="1024" d="M0 -256v-256h256v256h-256zM0 1792h256v256h-256v-256zM256 0v-256h256v256h-256zM256 1536h256v256h-256v-256zM512 0h256v1536h-256v-1536z" />
<glyph unicode="*" horiz-adv-x="1024" d="M0 1024v256h256v-256h-256zM0 1536v256h768v-256h-768zM256 1280v256h256v-256h-256zM256 1792v256h256v-256h-256zM512 1024v256h256v-256h-256z" />
<glyph unicode="+" d="M0 768v256h1280v-256h-1280zM512 256v512h256v-512h-256zM512 1024v512h256v-512h-256z" />
<glyph unicode="," horiz-adv-x="512" d="M0 256h256v-768h-256v768z" />
<glyph unicode="-" horiz-adv-x="1024" d="M0 512v256h768v-256h-768z" />
<glyph unicode="." horiz-adv-x="512" d="M0 0v256h256v-256h-256z" />
<glyph unicode="/" horiz-adv-x="1024" d="M0 0v512h256v-512h-256zM256 512v1024h256v-1024h-256zM512 1536v512h256v-512h-256z" />
<glyph unicode="0" d="M0 256v1536h266v-1536h-266zM256 0v256h768v-256h-768zM256 1792v256h768v-256h-768zM1014 256v1536h266v-1536h-266z" />
<glyph unicode="1" horiz-adv-x="1280" d="M0 1280v256h256v-256h-256zM256 1536v256h256v-256h-256zM512 0v2048h256v-2048h-256z" />
<glyph unicode="2" horiz-adv-x="1538" d="M0 0v256h1280v-256h-1280zM0 1536v256h256v-256h-256zM256 256v256h256v-256h-256zM256 1792v256h768v-256h-768zM512 512v256h256v-256h-256zM768 768v256h256v-256h-256zM1024 1024v768h256v-768h-256z" />
<glyph unicode="3" d="M0 256v256h256v-256h-256zM0 1536v256h256v-256h-256zM256 0v256h768v-256h-768zM256 1024v256h768v-256h-768zM256 1792v256h768v-256h-768zM1024 256v768h256v-768h-256zM1024 1280v512h256v-512h-256z" />
<glyph unicode="4" d="M0 512v512h256v512h256v256h256v256h256v-1280h256v-256h-256v-512h-256v512h-768zM266 768h502v768h-246v-512h-256v-256z" />
<glyph unicode="5" d="M0 256v256h256v-256h-256zM0 1024v256h1024v-256h-1024zM0 1280v256h256v-256h-256zM256 0v256h768v-256h-768zM256 1536v256h256v-256h-256zM256 1792v256h1024v-256h-1024zM1024 256v768h256v-768h-256z" />
<glyph unicode="6" d="M0 256v1536h256v-1536h-256zM246 0v256h788v-256h-788zM256 1024v256h778v-256h-778zM256 1792v256h768v-256h-768zM1024 256v768h256v-768h-256zM1024 1536v256h256v-256h-256z" />
<glyph unicode="7" d="M0 1792v256h1280v-256h-1280zM256 0v768h256v-768h-256zM512 768v512h256v-512h-256zM768 1280v512h256v-512h-256z" />
<glyph unicode="8" d="M0 256v768h256v-768h-256zM0 1280v512h256v-512h-256zM256 0v266h768v-266h-768zM256 1014v276h768v-276h-768zM256 1782v266h768v-266h-768zM1024 256v768h256v-768h-256zM1024 1280v512h256v-512h-256z" />
<glyph unicode="9" d="M0 256v256h256v-256h-256zM0 1024v768h256v-768h-256zM256 0v266h768v-266h-768zM256 758v276h768v-276h-768zM256 1782v266h768v-266h-768zM1024 256v1536h256v-1536h-256z" />
<glyph unicode=":" horiz-adv-x="512" d="M0 0v256h256v-256h-256zM0 1280v256h256v-256h-256z" />
<glyph unicode=";" horiz-adv-x="512" d="M0 256h256v-768h-256v768zM0 1280v256h256v-256h-256z" />
<glyph unicode="&#x3c;" d="M0 768v256h256v-256h-256zM256 512v256h768v-256h-768zM256 1024v256h768v-256h-768zM1024 256v256h256v-256h-256zM1024 1280v256h256v-256h-256z" />
<glyph unicode="=" d="M0 512v256h1280v-256h-1280zM0 1024v256h1280v-256h-1280z" />
<glyph unicode="&#x3e;" d="M0 256h256v256h-256v-256zM0 1280h256v256h-256v-256zM256 512h768v256h-768v-256zM256 1024h768v256h-768v-256zM1024 768h256v256h-256v-256z" />
<glyph unicode="?" d="M0 1536v256h256v-256h-256zM256 1792v256h768v-256h-768zM512 0v256h256v-256h-256zM512 512v512h256v-512h-256zM768 1024v256h256v-256h-256zM1024 1280v512h256v-512h-256z" />
<glyph unicode="@" horiz-adv-x="2816" d="M0 0v1280h256v-1280h-256zM256 0h256v-256h-256v256zM256 1280v512h256v-512h-256zM512 -256h1792v-256h-1792v256zM512 256v768h266v-768h-266zM512 -512zM512 1536v256h256v-256h-256zM768 0v256h512v-256h-512zM768 1024v256h266v-256h-266zM768 1792v256h1280v-256 h-1280zM1024 1280v256h512v-256h-512zM1270 256v256h266v-256h-266zM1526 0v1280h266v-1280h-266zM1792 0v256h256v-256h-256zM1792 1024v512h266v-512h-266zM2038 256v256h266v-256h-266zM2048 1536v256h256v-256h-256zM2294 512v1024h266v-1024h-266zM2304 0h256v-256 h-256v256z" />
<glyph unicode="A" horiz-adv-x="2048" d="M0 0v512h256v-512h-256zM256 512v512h266v-512h-266zM512 512v256h768v-256h-768zM512 1024v768h266v-768h-266zM768 1792v256h256v-256h-256zM1014 1024v768h266v-768h-266zM1270 512v512h266v-512h-266zM1536 0v512h256v-512h-256z" />
<glyph unicode="B" horiz-adv-x="1792" d="M0 0v2048h256v-2048h-256zM256 0v256h1024v-256h-1024zM256 1024v256h1024v-256h-1024zM256 1792v256h1024v-256h-1024zM1270 256v1536h266v-1536h-266z" />
<glyph unicode="C" horiz-adv-x="1792" d="M0 512v1024h256v-1024h-256zM256 256v256h256v-256h-256zM256 1536v256h256v-256h-256zM512 0v256h768v-256h-768zM512 1792v256h768v-256h-768zM1280 256v256h256v-256h-256zM1280 1536v256h256v-256h-256z" />
<glyph unicode="D" horiz-adv-x="1792" d="M0 0v2048h256v-2048h-256zM256 0v256h768v-256h-768zM256 1792v256h768v-256h-768zM1014 256v256h266v-256h-266zM1014 1536v256h266v-256h-266zM1270 512v1024h266v-1024h-266z" />
<glyph unicode="E" d="M0 0v2048h256v-2048h-256zM256 0v256h1024v-256h-1024zM256 1024v256h1024v-256h-1024zM256 1792v256h1024v-256h-1024z" />
<glyph unicode="F" d="M0 0v2048h256v-2048h-256zM256 1024v256h768v-256h-768zM256 1792v256h1024v-256h-1024z" />
<glyph unicode="G" horiz-adv-x="2048" d="M0 512v1024h256v-1024h-256zM256 256v256h256v-256h-256zM256 1536v256h256v-256h-256zM512 0v256h768v-256h-768zM512 1792v256h768v-256h-768zM1024 768v256h512v-256h-512zM1280 256v256h256v-256h-256zM1280 1536v256h256v-256h-256zM1536 512v256h256v-256h-256z M1536 768v256h256v-256h-256zM1536 1280v256h256v-256h-256z" />
<glyph unicode="H" horiz-adv-x="1792" d="M0 0v2048h256v-2048h-256zM256 1024v256h1024v-256h-1024zM1280 0v2048h256v-2048h-256z" />
<glyph unicode="I" horiz-adv-x="512" d="M0 0v2048h256v-2048h-256z" />
<glyph unicode="J" horiz-adv-x="1280" d="M0 256v512h256v-512h-256zM256 0v256h512v-256h-512zM768 256v1792h256v-1792h-256z" />
<glyph unicode="K" horiz-adv-x="1792" d="M0 0v2048h256v-1024h256v256h256v256h256v256h256v256h256v-256h-256v-256h-256v-768h256v-512h256v-256h-256v256h-256v512h-256v256h-256v-256h-256v-768h-256z" />
<glyph unicode="L" d="M0 0v2048h256v-2048h-256zM256 0v256h1024v-256h-1024z" />
<glyph unicode="M" horiz-adv-x="2048" d="M0 0v2048h256v-2048h-256zM256 1280v512h256v-512h-256zM512 512v768h256v-768h-256zM768 0v512h256v-512h-256zM1024 512v768h256v-768h-256zM1280 1280v512h256v-512h-256zM1536 0v2048h256v-2048h-256z" />
<glyph unicode="N" horiz-adv-x="1792" d="M0 0v2048h256v-2048h-256zM256 1536v256h256v-256h-256zM512 1024v512h256v-512h-256zM768 512v512h256v-512h-256zM1024 256v256h256v-256h-256zM1280 0v2048h256v-2048h-256z" />
<glyph unicode="O" horiz-adv-x="2048" d="M0 512v1024h266v-1024h-266zM256 256v256h266v-256h-266zM256 1536v256h266v-256h-266zM512 0v256h768v-256h-768zM512 1792v256h768v-256h-768zM1270 256v256h266v-256h-266zM1270 1536v256h266v-256h-266zM1526 512v1024h266v-1024h-266z" />
<glyph unicode="P" d="M0 0v2048h256v-2048h-256zM256 768v256h768v-256h-768zM256 1792v256h768v-256h-768zM1014 1024v768h266v-768h-266z" />
<glyph unicode="Q" horiz-adv-x="2048" d="M0 512v1024h266v-1024h-266zM256 256v256h266v-256h-266zM256 1536v256h266v-256h-266zM512 0v256h768v-256h-768zM512 1792v256h768v-256h-768zM768 512v256h512v-256h-512zM1270 256v256h266v-256h-266zM1270 1536v256h266v-256h-266zM1526 512v1024h266v-1024h-266z M1536 0v256h256v-256h-256z" />
<glyph unicode="R" horiz-adv-x="1792" d="M0 0v2048h256v-2048h-256zM256 1024v256h1024v-256h-1024zM256 1792v256h1024v-256h-1024zM768 768v256h256v-256h-256zM1024 256v512h256v-512h-256zM1270 1280v512h266v-512h-266zM1280 0v256h256v-256h-256z" />
<glyph unicode="S" horiz-adv-x="1792" d="M0 256v256h256v-256h-256zM0 1280v512h256v-512h-256zM256 0v256h1024v-256h-1024zM256 1024v256h512v-256h-512zM256 1792v256h1024v-256h-1024zM768 768v256h512v-256h-512zM1280 256v512h256v-512h-256zM1280 1536v256h256v-256h-256z" />
<glyph unicode="T" d="M0 1792v256h1280v-256h-1280zM512 0v1792h256v-1792h-256z" />
<glyph unicode="U" horiz-adv-x="1792" d="M0 256v1792h256v-1792h-256zM256 0v256h1024v-256h-1024zM1280 256v1792h256v-1792h-256z" />
<glyph unicode="V" horiz-adv-x="2048" d="M0 1536v512h256v-512h-256zM256 1024v512h256v-512h-256zM512 512v512h256v-512h-256zM768 0v512h256v-512h-256zM1024 512v512h256v-512h-256zM1280 1024v512h256v-512h-256zM1536 1536v512h256v-512h-256z" />
<glyph unicode="W" horiz-adv-x="2560" d="M-256 1536v512h256v-512h-256zM0 512v1024h256v-1024h-256zM256 0v512h256v-512h-256zM512 512v512h256v-512h-256zM768 1024v768h256v-768h-256zM1024 1792v256h256v-256h-256zM1280 1024v768h256v-768h-256zM1536 512v512h256v-512h-256zM1792 0v512h256v-512h-256z M2048 512v1024h256v-1024h-256zM2304 1536v512h256v-512h-256z" />
<glyph unicode="X" horiz-adv-x="1792" d="M0 0v256h256v-256h-256zM0 1792v256h256v-256h-256zM256 256v512h256v-512h-256zM256 1280v512h256v-512h-256zM512 768v512h512v-512h-512zM1024 256v512h256v-512h-256zM1024 1280v512h256v-512h-256zM1280 0v256h256v-256h-256zM1280 1792v256h256v-256h-256z" />
<glyph unicode="Y" horiz-adv-x="2048" d="M0 1792v256h256v-256h-256zM256 1280v512h256v-512h-256zM512 1024v256h256v-256h-256zM768 0v1024h256v-1024h-256zM1024 1024v256h256v-256h-256zM1280 1280v512h256v-512h-256zM1536 1792v256h256v-256h-256z" />
<glyph unicode="Z" horiz-adv-x="1792" d="M0 0v256h1536v-256h-1536zM256 256v256h256v-256h-256zM256 1792v256h1280v-256h-1280zM512 512v512h256v-512h-256zM768 1024v512h256v-512h-256zM1024 1536v256h256v-256h-256z" />
<glyph unicode="[" horiz-adv-x="768" d="M0 -512v2560h512v-256h-256v-2048h256v-256h-512z" />
<glyph unicode="\" horiz-adv-x="1024" d="M0 1536v512h256v-512h-256zM256 512v1024h256v-1024h-256zM512 0v512h256v-512h-256z" />
<glyph unicode="]" horiz-adv-x="768" d="M0 -256v-256h512v2560h-512v-256h256v-2048h-256z" />
<glyph unicode="^" d="M0 1024v256h256v-256h-256zM256 1280v512h256v-512h-256zM512 1792v256h256v-256h-256zM768 1280v512h256v-512h-256zM1024 1024v256h256v-256h-256z" />
<glyph unicode="_" horiz-adv-x="1792" d="M0 -256h1536v-256h-1536v256z" />
<glyph unicode="`" horiz-adv-x="1024" d="M0 1792v256h256v-256h-256zM256 1536v256h256v-256h-256z" />
<glyph unicode="a" d="M0 256v512h256v-512h-256zM0 1024v256h256v-256h-256zM256 0v266h512v-266h-512zM256 758v276h768v-276h-768zM256 1270v266h768v-266h-768zM768 256v256h256v-256h-256zM1024 0v1280h256v-1280h-256z" />
<glyph unicode="b" d="M0 0v2048h256v-2048h-256zM256 256v256h266v-256h-266zM256 1024v256h266v-256h-266zM512 0v256h512v-256h-512zM512 1280v256h512v-256h-512zM1014 256v1024h266v-1024h-266z" />
<glyph unicode="c" d="M0 256v1024h256v-1024h-256zM256 0v256h768v-256h-768zM256 1280v256h768v-256h-768zM1024 256v256h256v-256h-256zM1024 1024v256h256v-256h-256z" />
<glyph unicode="d" d="M0 256h266v1024h-266v-1024zM256 0h512v256h-512v-256zM256 1280h512v256h-512v-256zM758 256h266v256h-266v-256zM758 1024h266v256h-266v-256zM1024 0h256v2048h-256v-2048z" />
<glyph unicode="e" d="M0 256v1024h256v-1024h-256zM256 0v256h768v-256h-768zM256 768v256h1024v-256h-1024zM256 1270v266h768v-266h-768zM1024 256v256h256v-256h-256zM1024 1024v256h256v-256h-256z" />
<glyph unicode="f" horiz-adv-x="1024" d="M0 1280v256h768v-256h-768zM256 0v1792h256v-1792h-256zM512 1792v256h256v-256h-256z" />
<glyph unicode="g" d="M0 256v1024h256v-1024h-256zM0 -256h1024v-256h-1024v256zM256 0v266h512v-266h-512zM256 1270v266h512v-266h-512zM768 256v256h256v-256h-256zM768 1024v256h256v-256h-256zM1024 -256v1792h256v-1792h-256z" />
<glyph unicode="h" d="M0 0v2048h256v-2048h-256zM256 1024v256h256v-256h-256zM512 1280v256h512v-256h-512zM1024 0v1280h256v-1280h-256z" />
<glyph unicode="i" horiz-adv-x="512" d="M0 0v1536h256v-1536h-256zM0 1792v256h256v-256h-256z" />
<glyph unicode="j" horiz-adv-x="512" d="M-256 -256h256v-256h-256v256zM0 -256v1792h256v-1792h-256zM0 1792v256h256v-256h-256z" />
<glyph unicode="k" horiz-adv-x="1280" d="M0 0v2048h256v-2048h-256zM256 768v256h256v-256h-256zM512 256v512h256v-512h-256zM512 1024v256h256v-256h-256zM768 0v256h256v-256h-256zM768 1280v256h256v-256h-256z" />
<glyph unicode="l" horiz-adv-x="512" d="M0 0v2048h256v-2048h-256z" />
<glyph unicode="m" horiz-adv-x="2048" d="M0 0v1536h256v-1536h-256zM256 1024v256h256v-256h-256zM512 1280v256h1024v-256h-1024zM768 0v1280h256v-1280h-256zM1536 0v1280h256v-1280h-256z" />
<glyph unicode="n" d="M0 0v1536h256v-1536h-256zM256 1280v256h768v-256h-768zM1024 0v1280h256v-1280h-256z" />
<glyph unicode="o" d="M0 256v1024h256v-1024h-256zM256 0v266h768v-266h-768zM256 1270v266h768v-266h-768zM1024 256v1024h256v-1024h-256z" />
<glyph unicode="p" d="M0 -512h256v2048h-256v-2048zM256 256h256v256h-256v-256zM256 1024h256v256h-256v-256zM512 0h512v266h-512v-266zM512 1270h512v266h-512v-266zM1024 256h256v1024h-256v-1024z" />
<glyph unicode="q" d="M0 256v1024h256v-1024h-256zM256 0v266h512v-266h-512zM256 1270v266h512v-266h-512zM768 256v256h256v-256h-256zM768 1024v256h256v-256h-256zM1024 -512v2048h256v-2048h-256z" />
<glyph unicode="r" horiz-adv-x="1024" d="M0 0v1536h256v-1536h-256zM256 1024v256h256v-256h-256zM512 1280v256h256v-256h-256z" />
<glyph unicode="s" d="M0 256v256h256v-256h-256zM0 1024v256h256v-256h-256zM256 0v256h768v-256h-768zM256 768v256h512v-256h-512zM256 1280v256h768v-256h-768zM768 512v256h256v-256h-256zM1024 256v256h256v-256h-256zM1024 1024v256h256v-256h-256z" />
<glyph unicode="t" horiz-adv-x="768" d="M-256 1280v256h768v-256h-768zM0 0v2048h256v-2048h-256zM256 0v256h256v-256h-256z" />
<glyph unicode="u" d="M0 256v1280h256v-1280h-256zM256 0v256h512v-256h-512zM768 256v256h256v-256h-256zM1024 0v1536h256v-1536h-256z" />
<glyph unicode="v" d="M0 1024v512h256v-512h-256zM256 512v512h256v-512h-256zM512 0v512h256v-512h-256zM768 512v512h256v-512h-256zM1024 1024v512h256v-512h-256z" />
<glyph unicode="w" horiz-adv-x="2560" d="M0 1024v512h256v-512h-256zM256 512v512h256v-512h-256zM512 0v512h256v-512h-256zM768 512v768h256v-768h-256zM1024 1280v256h256v-256h-256zM1280 512v768h256v-768h-256zM1536 0v512h256v-512h-256zM1792 512v512h256v-512h-256zM2048 1024v512h256v-512h-256z" />
<glyph unicode="x" d="M0 0v256h256v-256h-256zM0 1280v256h256v-256h-256zM256 256v256h256v-256h-256zM256 1024v256h256v-256h-256zM512 512v512h256v-512h-256zM768 256v256h256v-256h-256zM768 1024v256h256v-256h-256zM1024 0v256h256v-256h-256zM1024 1280v256h256v-256h-256z" />
<glyph unicode="y" d="M0 1024v512h256v-512h-256zM256 -256h256v-256h-256v256zM256 512v512h256v-512h-256zM512 -256v768h256v-768h-256zM768 512v512h256v-512h-256zM1024 1024v512h256v-512h-256z" />
<glyph unicode="z" d="M0 0v256h1280v-256h-1280zM0 1280v256h1280v-256h-1280zM256 256v256h256v-256h-256zM512 512v512h256v-512h-256zM768 1024v256h256v-256h-256z" />
<glyph unicode="{" horiz-adv-x="1024" d="M0 768v256h256v-256h-256zM256 -256v1024h256v-1024h-256zM256 1024v768h256v-768h-256zM512 -256h256v-256h-256v256zM512 1792v256h256v-256h-256z" />
<glyph unicode="|" horiz-adv-x="512" d="M0 -512v2560h256v-2560h-256z" />
<glyph unicode="}" horiz-adv-x="1024" d="M0 -256v-256h256v256h-256zM0 1792h256v256h-256v-256zM256 -256h256v1024h-256v-1024zM256 1024h256v768h-256v-768zM512 768h256v256h-256v-256z" />
<glyph unicode="~" d="M0 768v512h256v-512h-256zM256 1024v256h512v-256h-512zM512 768v256h512v-256h-512zM1024 1024v256h256v-256h-256z" />
<glyph unicode="&#xa0;" d="M0 256v1024h256v-1024h768v1024h256v-1536h-256v-256h-768v256h768v256h-768v256h-256zM256 1536v256h256v-256h-256zM768 1536v256h256v-256h-256z" />
<glyph unicode="&#xa1;" horiz-adv-x="2560" d="M0 256v1280h256v256h2048v-256h-1024v-512h768v-256h-768v-512h1024v-256h-2048v256h-256zM266 256h758v1280h-758v-1280z" />
<glyph unicode="&#xa2;" horiz-adv-x="1280" d="M0 512v512h256v256h256v256h256v-256h256v-256h-768v-512h768v-256h-256v-256h-256v256h-256v256h-256z" />
<glyph unicode="&#xa3;" d="M0 0v1536h256v256h512v-256h256v-256h-256v256h-512v-512h512v-256h-512v-512h768v256h256v-256h-256v-256h-1024z" />
<glyph unicode="&#xa4;" horiz-adv-x="512" d="M-256 2048v256h256v-256h-256zM0 0v1792h256v-1792h-256zM256 2048v256h256v-256h-256z" />
<glyph unicode="&#xa5;" horiz-adv-x="2560" d="M0 254v258h256v256h768v256h-768v256h768v-256h254v256h772v-256h254v-512h-1014v-256h758v-256h-768v256h-256v-256h-770v254h-254zM266 256h748v254h-748v-254zM1290 768h748v256h-748v-256z" />
<glyph unicode="&#xa6;" horiz-adv-x="768" />
<glyph unicode="&#xa7;" horiz-adv-x="1024" d="M0 0v256h512v256h-256v256h-256v256h256v256h-256v256h256v256h512v-256h-512v-256h256v-256h256v-256h-256v-256h256v-256h-256v-256h-512zM266 768h236v256h-236v-256z" />
<glyph unicode="&#xa8;" horiz-adv-x="1280" d="M256 1536v256h256v-256h-256zM768 1536v256h256v-256h-256z" />
<glyph unicode="&#xa9;" horiz-adv-x="2048" d="M0 254v1282h256v256h1280v-256h256v-1282h-256v-254h-1280v254h-256zM266 256h1260v1278h-1260v-1278zM512 512v768h768v-256h-512v-256h512v-256h-768z" />
<glyph unicode="&#xaa;" d="M0 512v256h256v256h-256v256h256v-256h256v-256h-256v-256h-256zM768 512v256h256v256h-256v256h256v-256h256v-256h-256v-256h-256z" />
<glyph unicode="&#xab;" horiz-adv-x="768" d="M0 770v510h256v256h256v-256h-256v-254h256v-256h-512z" />
<glyph unicode="&#xac;" horiz-adv-x="2560" d="M0 256v768h256v256h768v-256h256v256h768v-256h256v-512h-1024v-256h768v-256h-768v256h-256v-256h-768v256h-256zM266 256h748v768h-748v-768zM1290 768h748v256h-748v-256z" />
<glyph unicode="&#xad;" horiz-adv-x="1024" d="M0 512v256h768v-256h-768z" />
<glyph unicode="&#xae;" horiz-adv-x="2048" d="M0 254v1282h256v256h1280v-256h256v-1282h-256v-254h-1280v254h-256zM266 256h1260v1278h-1260v-1278zM512 512v768h768v-256h-256v-256h256v-256h-256v256h-256v-256h-256z" />
<glyph unicode="&#xaf;" horiz-adv-x="768" />
<glyph unicode="&#xb0;" horiz-adv-x="1024" d="M0 1276v256h256v256h256v-256h256v-256h-256v-256h-256v256h-256zM266 1276h236v256h-236v-256z" />
<glyph unicode="&#xb1;" d="M0 -512v1792h256v-1024h512v1024h256v-1024h256v-256h-256v256h-256v-256h-512v-512h-256z" />
<glyph unicode="&#xb2;" d="M0 0v256h256v256h-256v1024h256v256h766v-256h258v-1024h-256v-256h256v-256h-512v512h254v1022h-766v-1022h256v-512h-512z" />
<glyph unicode="&#xb3;" d="M0 514v256h256v-256h256v512h254v510h512v-256h-256v-254h-256v-512h-254v-510h-256v510h-256z" />
<glyph unicode="&#xb4;" horiz-adv-x="1024" d="M256 1536h256v256h256v256h-256v-256h-256v-256z" />
<glyph unicode="&#xb5;" horiz-adv-x="1280" d="M0 256v768h256v256h512v-256h256v-768h-256v-256h-512v256h-256zM266 256h492v256h-492v-256zM266 768h492v256h-492v-256z" />
<glyph unicode="&#xb6;" d="M0 1024v512h256v256h1024v-1792h-256v768h-256v-768h-256v768h-256v256h-256zM266 1024h246v512h-246v-512zM768 1024h256v512h-256v-512z" />
<glyph unicode="&#xb7;" horiz-adv-x="1792" d="M0 256v1536h256v-1536h1024v1536h256v-1536h-256v-256h-1024v256h-256zM256 2048v256h256v256h512v-256h256v-256h-256v256h-512v-256h-256z" />
<glyph unicode="&#xb8;" horiz-adv-x="768" />
<glyph unicode="&#xb9;" horiz-adv-x="1024" d="M0 -256h256v2048h256v256h256v-256h-256v-2048h-256v-256h-256v256z" />
<glyph unicode="&#xba;" d="M0 0v256h256v-256h-256zM512 0v256h256v-256h-256zM1024 0v256h256v-256h-256z" />
<glyph unicode="&#xbb;" horiz-adv-x="768" d="M0 770v256h256v254h-256v256h512v-510h-256v-256h-256z" />
<glyph unicode="&#xbc;" d="M0 258v512h256v510h256v512h256v-512h256v-510h256v-512h-1280zM266 514h748v256h-256v510h-236v-510h-256v-256z" />
<glyph unicode="&#xbd;" d="M0 258v256h256v256h510v-256h256v256h256v-256h-256v-256h-256v256h-510v-256h-256zM0 1026v254h256v256h510v-256h256v256h256v-256h-256v-254h-256v254h-510v-254h-256z" />
<glyph unicode="&#xbe;" d="M0 770v256h256v254h256v256h256v-256h256v-254h254v-256h-254v-256h-256v-256h-256v256h-256v256h-256zM266 770h254v-256h236v256h258v256h-256v254h-236v-254h-256v-256z" />
<glyph unicode="&#xbf;" d="M0 256v768h256v256h768v-256h256v-768h-256v-256h-768v256h-256zM256 266h768v748h-768v-748zM256 1536v256h256v256h256v-256h256v256h256v-256h-256v-256h-256v256h-256v-256h-256z" />
<glyph unicode="&#xc0;" horiz-adv-x="2048" d="M0 1540v252h256v-252h-256zM256 1280v260h256v-260h256v-256h-256v256h-256zM512 2048v256h256v-256h-256zM768 0v1024h256v-1024h-256zM1024 1024v256h256v260h256v-260h-256v-256h-256zM1024 2048v256h256v-256h-256zM1536 1540v252h256v-252h-256z" />
<glyph unicode="&#xc1;" horiz-adv-x="1792" d="M0 256v256h256v-256h1024v512h-1024v256h-256v512h256v256h1024v-256h256v-256h-256v256h-1024v-512h1024v-256h256v-512h-256v-256h-1024v256h-256zM256 2304v256h256v-256h512v256h256v-256h-256v-256h-512v256h-256z" />
<glyph unicode="&#xc2;" horiz-adv-x="1024" d="M0 1280v256h768v-256h-768z" />
<glyph unicode="&#xc3;" horiz-adv-x="1280" d="M0 256v512h256v256h512v-256h256v-512h-256v-256h-512v256h-256zM256 266h512v492h-512v-492z" />
<glyph unicode="&#xc4;" horiz-adv-x="1792" d="M0 0v1536h256v256h1024v-256h256v-1536h-256v768h-1024v-768h-256zM256 1024h1024v502h-1024v-502zM256 2048v256h256v-256h-256zM1024 2048v256h256v-256h-256z" />
<glyph unicode="&#xc5;" horiz-adv-x="1792" d="M0 0v1536h256v256h256v256h-256v256h256v256h512v-256h256v-256h-256v-256h256v-256h256v-1536h-256v768h-1024v-768h-256zM256 1024h1024v502h-1024v-502zM522 2048h492v256h-492v-256z" />
<glyph unicode="&#xc6;" d="M0 256v1280h256v256h768v-256h256v-1280h-256v-256h-768v256h-256zM256 266h768v768h-246v-256h-266v-256h-256v-256zM256 778h246v256h266v256h256v236h-768v-748z" />
<glyph unicode="&#xc7;" horiz-adv-x="1792" d="M0 256v1280h256v256h1024v-256h256v-256h-256v256h-1024v-1280h1024v256h256v-256h-256v-256h-256v-256h-256v-256h-512v256h512v256h-512v256h-256z" />
<glyph unicode="&#xc8;" horiz-adv-x="1024" d="M256 4v766h256v-766h-256zM256 1026v766h256v-766h-256z" />
<glyph unicode="&#xc9;" horiz-adv-x="1792" d="M0 0v1792h1536v-256h-1280v-512h1024v-256h-1024v-512h1280v-256h-1536zM512 2048h256v256h256v256h-256v-256h-256v-256z" />
<glyph unicode="&#xca;" horiz-adv-x="1024" d="M0 -256h512v256h-256v256h256v-256h258v-256h-258v-256h-512v256z" />
<glyph unicode="&#xcb;" horiz-adv-x="1280" d="M0 0v256h768v256h-512v256h-256v256h256v256h768v-256h-768v-256h512v-256h256v-256h-256v-256h-768zM256 1792v256h256v-256h256v256h256v-256h-256v-256h-256v256h-256z" />
<glyph unicode="&#xcc;" d="M0 256v1024h256v-1024h768v1024h256v-1536h-256v-256h-768v256h768v256h-768v256h-256zM512 1536h256v256h256v256h-256v-256h-256v-256z" />
<glyph unicode="&#xcd;" horiz-adv-x="2048" d="M0 766v256h256v770h1280v-256h256v-1280h-256v-256h-1280v766h-256zM512 256h1014v1280h-1014v-514h256v-256h-256v-510z" />
<glyph unicode="&#xce;" d="M0 256v510h254v258h258v254h-512v256h512v254h254v-254h514v-256h-254v-254h254v-768h-256v-256h-770v256h-254zM266 256h748v768h-492v-258h-256v-510z" />
<glyph unicode="&#xcf;" horiz-adv-x="2048" d="M0 1540v252h256v-252h-256zM256 1280v260h256v-260h256v-256h-256v256h-256zM768 0v1024h256v-1024h-256zM768 2048h256v256h256v256h-256v-256h-256v-256zM1024 1024v256h256v260h256v-260h-256v-256h-256zM1536 1540v252h256v-252h-256z" />
<glyph unicode="&#xd0;" d="M0 512v256h512v256h-512v256h768v256h256v-256h256v-256h-512v-256h512v-256h-768v-256h-256v256h-256z" />
<glyph unicode="&#xd1;" horiz-adv-x="1792" d="M0 0v1792h256v-256h256v-256h256v-256h256v-256h256v1024h256v-1792h-256v512h-256v256h-256v256h-256v256h-256v-1280h-256zM256 2048v256h256v256h256v-256h256v256h256v-256h-256v-256h-256v256h-256v-256h-256z" />
<glyph unicode="&#xd2;" d="M0 256v256h256v256h256v256h-256v256h-256v256h256v-256h256v-256h256v256h256v256h256v-256h-256v-256h-256v-256h256v-256h256v-256h-256v256h-256v256h-256v-256h-256v-256h-256z" />
<glyph unicode="&#xd3;" horiz-adv-x="1280" d="M0 4v1788h256v-512h510v-254h258v-256h-256v-258h-512v-508h-256zM256 770h502v256h-502v-256z" />
<glyph unicode="&#xd4;" horiz-adv-x="1280" d="M0 -252v1788h256v-512h514v-254h254v-256h-254v-258h-514v-508h-256zM256 514h502v256h-502v-256z" />
<glyph unicode="&#xd5;" horiz-adv-x="768" d="M0 768v256h256v256h256v-256h-256v-256h256v-256h-256v256h-256z" />
<glyph unicode="&#xd6;" horiz-adv-x="1792" d="M0 256v1280h256v256h1024v-256h256v-1280h-256v-256h-1024v256h-256zM256 266h1024v1260h-1024v-1260zM256 2048v256h256v-256h-256zM1024 2048v256h256v-256h-256z" />
<glyph unicode="&#xd7;" d="M0 1024v256h1280v-256h-256v-1024h-256v1024h-256v-1024h-256v1024h-256z" />
<glyph unicode="&#xd8;" d="M0 0v256h512v512h-512v256h512v512h256v-512h512v-256h-512v-512h512v-256h-1280z" />
<glyph unicode="&#xd9;" horiz-adv-x="1024" d="M0 512v256h512v256h-512v256h512v256h-512v256h512v-256h256v-256h-256v-256h256v-256h-256v-256h-512z" />
<glyph unicode="&#xda;" horiz-adv-x="768" d="M0 1280v256h256v256h256v-1280h-256v768h-256z" />
<glyph unicode="&#xdb;" horiz-adv-x="1280" d="M0 512v256h256v256h256v256h256v256h-512v256h512v-256h256v-256h-256v-256h-256v-256h512v-256h-1024zM0 1280v256h256v-256h-256z" />
<glyph unicode="&#xdc;" horiz-adv-x="1792" d="M0 256v1536h256v-1536h1024v1536h256v-1536h-256v-256h-1024v256h-256zM256 2048v256h256v-256h-256zM1024 2048v256h256v-256h-256z" />
<glyph unicode="&#xdd;" horiz-adv-x="1024" d="M0 0v256h768v-256h-768zM0 1024v256h256v256h256v256h256v-256h-256v-256h-256v-256h256v-256h256v-256h-256v256h-256v256h-256z" />
<glyph unicode="&#xde;" d="M0 256v510h254v258h258v254h256v256h-256v254h254v-254h260v-510h254v-768h-256v-256h-770v256h-254zM266 256h748v768h-492v-258h-256v-510z" />
<glyph unicode="&#xdf;" d="M0 -256v1536h256v256h256v256h512v-256h256v-512h-256v-256h256v-512h-256v-256h-512v256h512v512h-256v256h256v512h-512v-256h-256v-1536h-256z" />
<glyph unicode="&#xe0;" d="M0 256v768h256v256h1024v-1280h-1024v256h-256zM256 1792v256h256v-256h256v-256h-256v256h-256zM266 256h758v768h-758v-768z" />
<glyph unicode="&#xe1;" d="M0 256v768h256v256h1024v-1280h-1024v256h-256zM266 256h758v768h-758v-768zM512 1536h256v256h256v256h-256v-256h-256v-256z" />
<glyph unicode="&#xe2;" d="M0 256v768h256v256h1024v-1280h-1024v256h-256zM256 1536v256h256v256h256v-256h256v-256h-256v256h-256v-256h-256zM266 256h758v768h-758v-768z" />
<glyph unicode="&#xe3;" d="M0 256v768h256v256h1024v-1280h-1024v256h-256zM256 1536v256h256v256h256v-256h256v256h256v-256h-256v-256h-256v256h-256v-256h-256zM266 256h758v768h-758v-768z" />
<glyph unicode="&#xe4;" d="M0 256v768h256v256h1024v-1280h-1024v256h-256zM256 1536v256h256v-256h-256zM266 256h758v768h-758v-768zM768 1536v256h256v-256h-256z" />
<glyph unicode="&#xe5;" d="M0 256v768h256v256h256v256h-256v256h256v256h512v-256h256v-256h-256v-256h256v-1280h-1024v256h-256zM266 256h758v768h-758v-768zM522 1536h492v256h-492v-256z" />
<glyph unicode="&#xe6;" horiz-adv-x="1792" d="M0 0v1536h256v256h1024v-256h256v-1536h-256v768h-1024v-768h-256zM256 1024h1024v502h-1024v-502zM512 2304v256h256v-256h256v-256h-256v256h-256z" />
<glyph unicode="&#xe7;" d="M0 256v768h256v256h768v-256h256v-256h-256v256h-768v-768h768v256h256v-256h-256v-256h-256v-256h-256v-256h-256v256h256v256h-256v256h-256z" />
<glyph unicode="&#xe8;" d="M0 256v768h256v256h768v-256h256v-512h-1024v-256h768v-256h-768v256h-256zM256 768h768v246h-768v-246zM256 1792v256h256v-256h256v-256h-256v256h-256z" />
<glyph unicode="&#xe9;" d="M0 256v768h256v256h768v-256h256v-512h-1024v-256h768v-256h-768v256h-256zM256 768h768v246h-768v-246zM512 1536h256v256h256v256h-256v-256h-256v-256z" />
<glyph unicode="&#xea;" d="M0 256v768h256v256h768v-256h256v-512h-1024v-256h768v-256h-768v256h-256zM256 768h768v246h-768v-246zM256 1536v256h256v256h256v-256h256v-256h-256v256h-256v-256h-256z" />
<glyph unicode="&#xeb;" d="M0 256v768h256v256h768v-256h256v-512h-1024v-256h768v-256h-768v256h-256zM0 1536v256h256v-256h-256zM256 768h768v246h-768v-246zM768 1536v256h256v-256h-256z" />
<glyph unicode="&#xec;" horiz-adv-x="512" d="M-256 1792v256h256v-256h256v-256h-256v256h-256zM0 0v1280h256v-1280h-256z" />
<glyph unicode="&#xed;" horiz-adv-x="512" d="M0 0v1280h256v-1280h-256zM0 1536h256v256h256v256h-256v-256h-256v-256z" />
<glyph unicode="&#xee;" horiz-adv-x="512" d="M-256 1536v256h256v256h256v-256h256v-256h-256v256h-256v-256h-256zM0 0v1280h256v-1280h-256z" />
<glyph unicode="&#xef;" horiz-adv-x="512" d="M-256 1536v256h256v-256h-256zM0 0v1280h256v-1280h-256zM256 1536v256h256v-256h-256z" />
<glyph unicode="&#xf0;" d="M0 512v256h256v256h256v-256h256v256h256v-256h256v-256h-256v-256h-256v256h-256v-256h-256v256h-256zM266 512h236v256h-236v-256zM774 512h242v256h-242v-256z" />
<glyph unicode="&#xf1;" d="M0 0v1280h1024v-256h256v-1024h-256v1024h-768v-1024h-256zM0 1536v256h256v256h256v-256h256v256h256v-256h-256v-256h-256v256h-256v-256h-256z" />
<glyph unicode="&#xf2;" d="M0 256v768h256v256h768v-256h256v-768h-256v-256h-768v256h-256zM256 266h768v748h-768v-748zM256 1792v256h256v-256h256v-256h-256v256h-256z" />
<glyph unicode="&#xf3;" d="M0 256v768h256v256h768v-256h256v-768h-256v-256h-768v256h-256zM256 266h768v748h-768v-748zM512 1536h256v256h256v256h-256v-256h-256v-256z" />
<glyph unicode="&#xf4;" d="M0 256v768h256v256h768v-256h256v-768h-256v-256h-768v256h-256zM256 266h768v748h-768v-748zM256 1536v256h256v256h256v-256h256v-256h-256v256h-256v-256h-256z" />
<glyph unicode="&#xf5;" d="M0 256v768h256v256h768v-256h256v-768h-256v-256h-768v256h-256zM256 266h768v748h-768v-748zM256 1536v256h256v256h256v-256h256v256h256v-256h-256v-256h-256v256h-256v-256h-256z" />
<glyph unicode="&#xf6;" d="M0 256v768h256v256h768v-256h256v-768h-256v-256h-768v256h-256zM256 266h768v748h-768v-748zM256 1536v256h256v-256h-256zM768 1536v256h256v-256h-256z" />
<glyph unicode="&#xf7;" horiz-adv-x="1792" d="M0 0v1536h256v256h1024v-256h256v-1536h-256v768h-1024v-768h-256zM256 1024h1024v502h-1024v-502zM512 2048h256v256h256v256h-256v-256h-256v-256z" />
<glyph unicode="&#xf8;" horiz-adv-x="1792" d="M0 0v1536h256v256h1024v-256h256v-1536h-256v768h-1024v-768h-256zM256 1024h1024v502h-1024v-502zM256 2048v256h256v256h256v-256h256v256h256v-256h-256v-256h-256v256h-256v-256h-256z" />
<glyph unicode="&#xf9;" d="M0 256v1024h256v-1024h768v1024h256v-1280h-1024v256h-256zM256 1792v256h256v-256h256v-256h-256v256h-256z" />
<glyph unicode="&#xfa;" d="M0 256v1024h256v-1024h768v1024h256v-1280h-1024v256h-256zM512 1536h256v256h256v256h-256v-256h-256v-256z" />
<glyph unicode="&#xfb;" d="M0 256v1024h256v-1024h768v1024h256v-1280h-1024v256h-256zM256 1536v256h256v256h256v-256h256v-256h-256v256h-256v-256h-256z" />
<glyph unicode="&#xfc;" d="M0 256v1024h256v-1024h768v1024h256v-1280h-1024v256h-256zM256 1536v256h256v-256h-256zM768 1536v256h256v-256h-256z" />
<glyph unicode="&#xfd;" horiz-adv-x="1024" d="M0 0v256h768v-256h-768zM0 512v256h256v256h256v256h-256v256h-256v256h256v-256h256v-256h256v-256h-256v-256h-256v-256h-256z" />
<glyph unicode="&#xfe;" d="M0 0v256h256v256h256v256h256v256h-256v256h-256v256h-256v256h1280v-512h-256v256h-512v-256h256v-256h256v-256h-256v-256h-256v-256h512v256h256v-512h-1280z" />
<glyph unicode="&#xff;" horiz-adv-x="1792" d="M0 0v1792h1536v-256h-1280v-512h1024v-256h-1024v-512h1280v-256h-1536zM512 2304v256h256v-256h256v-256h-256v256h-256z" />
<glyph unicode="&#x152;" horiz-adv-x="768" d="M0 512v256h256v256h-256v256h256v-256h256v-256h-256v-256h-256z" />
<glyph unicode="&#x153;" horiz-adv-x="1024" d="M0 514v256h248v256h-248v254h248v512h264v-512h254v-254h-254v-256h254v-256h-254v-510h-264v510h-248z" />
<glyph unicode="&#x178;" horiz-adv-x="512" d="M0 0v1792h256v-1792h-256zM0 2048h256v256h256v256h-256v-256h-256v-256z" />
<glyph unicode="&#x2c6;" horiz-adv-x="2560" d="M0 1280h256v-768h256v1280h-256v-256h-256v-256zM512 0v512h256v512h256v512h256v512h256v-512h-256v-512h-256v-512h-256v-512h-256zM1280 256v512h256v256h256v256h256v-768h256v-256h-256v-256h-256v256h-512zM1536 512h256v246h-256v-246z" />
<glyph unicode="&#x2dc;" horiz-adv-x="2816" d="M0 512v256h512v256h-512v256h512v256h-512v256h512v-256h256v-256h-256v-256h256v-256h-256v-256h-512zM768 0v512h256v512h256v512h256v512h256v-512h-256v-512h-256v-512h-256v-512h-256zM1536 256v512h256v256h256v256h256v-768h256v-256h-256v-256h-256v256h-512z M1792 512h256v246h-256v-246z" />
<glyph unicode="&#x2000;" horiz-adv-x="1280" />
<glyph unicode="&#x2001;" horiz-adv-x="2560" />
<glyph unicode="&#x2002;" horiz-adv-x="1280" />
<glyph unicode="&#x2003;" horiz-adv-x="2560" />
<glyph unicode="&#x2004;" horiz-adv-x="853" />
<glyph unicode="&#x2005;" horiz-adv-x="640" />
<glyph unicode="&#x2006;" horiz-adv-x="426" />
<glyph unicode="&#x2007;" horiz-adv-x="426" />
<glyph unicode="&#x2008;" horiz-adv-x="320" />
<glyph unicode="&#x2009;" horiz-adv-x="512" />
<glyph unicode="&#x200a;" horiz-adv-x="142" />
<glyph unicode="&#x2010;" horiz-adv-x="1024" d="M0 512v256h768v-256h-768z" />
<glyph unicode="&#x2011;" horiz-adv-x="1024" d="M0 512v256h768v-256h-768z" />
<glyph unicode="&#x2012;" horiz-adv-x="1024" d="M0 512v256h768v-256h-768z" />
<glyph unicode="&#x2013;" horiz-adv-x="1024" d="M256 770v256h256v-256h-256z" />
<glyph unicode="&#x2014;" horiz-adv-x="768" d="M-256 -256h256v512h256v-512h-256v-256h-256v256z" />
<glyph unicode="&#x2018;" horiz-adv-x="1792" d="M0 0v1536h256v256h1024v-256h256v-1536h-256v768h-1024v-768h-256zM256 1024h1024v502h-1024v-502zM256 2048v256h256v256h512v-256h256v-256h-256v256h-512v-256h-256z" />
<glyph unicode="&#x2019;" horiz-adv-x="1792" d="M0 0v1792h1536v-256h-1280v-512h1024v-256h-1024v-512h1280v-256h-1536zM256 2048v256h256v256h512v-256h256v-256h-256v256h-512v-256h-256z" />
<glyph unicode="&#x201a;" horiz-adv-x="1792" d="M0 256v1536h256v-1536h1024v1536h256v-1536h-256v-256h-1024v256h-256zM512 2304v256h256v-256h256v-256h-256v256h-256z" />
<glyph unicode="&#x201c;" horiz-adv-x="1024" d="M-256 -256h256v512h256v-512h256v512h256v-512h-256v-256h-256v256h-256v-256h-256v256z" />
<glyph unicode="&#x201d;" horiz-adv-x="2560" d="M0 0v256h256v256h256v256h256v256h256v256h256v256h256v256h256v-256h-256v-256h-256v-256h-256v-256h-256v-256h-256v-256h-256v-256h-256zM0 1280v256h256v256h256v-256h256v-256h-256v-256h-256v256h-256zM266 1280h236v256h-236v-256zM1024 256v256h256v256h256v-256 h256v256h256v-256h256v-256h-256v-256h-256v256h-256v-256h-256v256h-256zM1290 256h236v256h-236v-256zM1798 256h242v256h-242v-256z" />
<glyph unicode="&#x201e;" horiz-adv-x="1280" d="M256 1280v256h256v256h256v-256h256v-256h-768zM512 1280h256v256h-256v-256z" />
<glyph unicode="&#x2022;" horiz-adv-x="1024" d="M0 768v256h256v256h256v-256h256v-256h-256v-256h-256v256h-256z" />
<glyph unicode="&#x2026;" d="M0 770v256h1278v-256h-1278zM512 258v256h254v-256h-254zM512 1280v256h254v-256h-254z" />
<glyph unicode="&#x202f;" horiz-adv-x="512" />
<glyph unicode="&#x2039;" horiz-adv-x="512" d="M-256 2304v256h256v-256h256v-256h-256v256h-256zM0 0v1792h256v-1792h-256z" />
<glyph unicode="&#x203a;" horiz-adv-x="1792" d="M0 256v1280h256v256h1024v-256h256v-1280h-256v-256h-1024v256h-256zM256 266h1024v1260h-1024v-1260zM768 2048h256v256h256v256h-256v-256h-256v-256z" />
<glyph unicode="&#x205f;" horiz-adv-x="640" />
<glyph unicode="&#x2122;" horiz-adv-x="2304" d="M0 1536v256h768v-256h256v256h256v-256h256v256h256v-256h256v-512h-256v512h-256v-512h-256v512h-256v-512h-256v512h-256v-512h-256v512h-256z" />
<glyph unicode="&#x25fc;" d="M0 0v1536h1536v-1536h-1536z" />
</font>
</defs>
</svg>
